<svg width="55" height="55" viewBox="0 0 55 55" fill="none" xmlns="http://www.w3.org/2000/svg">
<g id="Fertilizer Bag">
<path id="Vector" d="M15.5146 24.3805V29.5522C15.5146 29.9626 15.843 30.291 16.1714 30.373C21.6714 31.1939 26.1863 31.6044 30.6191 31.6044C34.9699 31.6044 39.2385 31.1939 43.6714 30.373C44.0818 30.291 44.3281 29.9626 44.3281 29.5522V24.3805C44.3281 23.5596 43.6714 22.9029 42.7684 22.9029H17.0743C16.2535 22.9029 15.5146 23.5596 15.5146 24.3805ZM19.9475 21.2611H39.5669C31.9326 14.0372 24.8729 15.1865 19.9475 21.2611Z" fill="white"/>
<path id="Vector_2" d="M20.2758 13.7909L18.1415 15.9253C17.9773 16.0894 17.8952 16.2536 17.8952 16.4999C17.8952 16.7462 17.9773 16.9103 18.1415 17.0745L19.8653 18.7984C22.6564 16.0074 25.7758 14.6118 29.1415 14.6118C30.1265 14.6118 31.0295 14.6939 32.0146 14.9402C31.3579 13.2984 30.4549 11.8208 29.2235 10.5894L26.925 8.29093C26.5967 7.96258 26.1041 7.96258 25.7758 8.29093L23.7235 10.3432C22.9847 9.93272 21.6713 8.94765 20.8504 6.89541C20.2758 5.33571 17.4027 2.54466 15.6788 1.14914C14.2833 -0.000111312 12.3131 0.0819783 11.1638 1.23123C10.0146 2.38049 9.93251 4.35064 11.0818 5.74616C12.5594 7.55213 15.2683 10.4253 16.9101 10.9178C19.1265 11.7387 20.0295 13.1342 20.2758 13.7909ZM23.5594 37.2685C24.134 40.5521 25.8579 43.3432 29.2235 42.9327C29.1415 42.6044 29.4698 41.1268 28.4027 39.7312C27.2534 38.1715 24.9549 37.5148 23.5594 37.2685ZM31.0295 43.0148C34.3952 43.3432 36.1191 40.6342 36.6937 37.3506C33.328 37.9253 30.6191 39.5671 31.0295 43.0148Z" fill="white"/>
<path id="Vector_3" d="M43.6713 32.0149C39.3206 32.8358 35.0519 33.1641 30.7012 33.1641C26.2683 33.1641 21.7534 32.8358 16.3355 32.0149C14.4474 39.485 14.6937 44.5746 17.1564 50.7313C17.5668 51.7985 18.4698 52.6194 19.6191 52.9477C23.8056 54.097 27.0892 54.5895 30.2086 54.5895C33.328 54.5895 36.4474 54.097 40.3877 53.0298C41.537 52.7015 42.522 51.7985 42.9325 50.7313C45.1489 44.5746 45.3952 39.403 43.6713 32.0149ZM30.9474 44.6567V48.597C30.9474 49.0895 30.6191 49.4179 30.1265 49.4179C29.634 49.4179 29.3056 49.0895 29.3056 48.597V44.6567C24.7086 45.0671 22.1638 40.8806 21.8355 36.4477C21.8355 36.2015 21.9176 35.9552 22.0818 35.791C22.2459 35.6268 22.4922 35.5447 22.7385 35.5447C25.3653 35.7089 28.731 36.9403 30.2086 39.3209C31.6862 36.9403 35.0519 35.7089 37.6788 35.5447C37.925 35.5447 38.1713 35.6268 38.3355 35.791C38.4997 35.9552 38.5818 36.2015 38.5818 36.4477C38.1713 40.7985 35.6265 45.0671 30.9474 44.6567Z" fill="white"/>
</g>
</svg>
