<svg width="171" height="23" viewBox="0 0 171 23" fill="none" xmlns="http://www.w3.org/2000/svg">
<g id="Group">
<g id="Group_2">
<path id="Vector" d="M19.7821 22.7147L12.2374 18.8563L4.71095 22.7325L6.13932 14.5412L0.0351562 8.75451L8.45891 7.5459L12.213 0.0922852L15.9915 7.53919L24.4152 8.71725L18.3293 14.5226L19.7821 22.7147ZM56.4438 22.7147L48.9051 18.8563L41.3787 22.7325L42.8071 14.5412L36.7029 8.75451L45.1266 7.5459L48.8807 0.0922852L52.6592 7.53919L61.0829 8.71725L54.9971 14.5226L56.4438 22.7147ZM93.0688 22.7147L85.5301 18.8563L78.0037 22.7325L79.4321 14.5412L73.3279 8.75451L81.7516 7.5459L85.5057 0.0922852L89.2842 7.53919L97.7079 8.71725L91.6221 14.5226L93.0688 22.7147ZM129.736 22.7147L122.192 18.8563L114.665 22.7325L116.094 14.5412L109.99 8.75451L118.413 7.5459L122.167 0.0922852L125.946 7.53919L134.37 8.71725L128.284 14.5226L129.736 22.7147ZM166.319 22.7147L158.78 18.8563L151.254 22.7325L152.682 14.5412L146.578 8.75451L155.002 7.5459L158.756 0.0922852L162.534 7.53919L170.958 8.71725L164.872 14.5226L166.319 22.7147Z" fill="#F9B536"/>
</g>
</g>
</svg>
