<svg width="60" height="60" viewBox="0 0 60 60" fill="none" xmlns="http://www.w3.org/2000/svg">
<g id="Plant In Soil">
<path id="Vector" d="M52.2 50.3889C51.7111 47.4778 49.4056 45.2111 46.5222 44.7611C45.35 42.4945 43.0111 41.05 40.4389 41.05C39.1167 41.05 37.8167 41.4334 36.7278 42.1445C36.3722 41.4834 35.9278 40.8778 35.3889 40.3389C33.9556 38.8889 32.0389 38.0945 29.9945 38.0945C28.6 38.0945 27.2333 38.4778 26.0556 39.1945C25.5556 39.5 25.0945 39.8556 24.6945 40.2445C24.1222 40.7945 23.6333 41.4445 23.2667 42.1445C22.1667 41.4334 20.8722 41.0445 19.5445 41.0445C16.9833 41.0445 14.6333 42.4945 13.4667 44.7556C10.5778 45.2111 8.26668 47.4723 7.7889 50.3834C7.71113 50.8278 7.8389 51.2834 8.1389 51.6389C8.44446 52 8.90002 52.2111 9.37224 52.2111H50.6111C51.0945 52.2111 51.5445 52 51.85 51.6389C52.1445 51.2889 52.2778 50.8334 52.2 50.3889ZM16.1056 49.1723C15.7222 49.1723 15.3722 48.8223 15.3722 48.4334C15.3722 48.05 15.7222 47.7111 16.1056 47.7111C16.4945 47.7111 16.8389 48.05 16.8389 48.4334C16.8334 48.8223 16.4945 49.1723 16.1056 49.1723ZM21.0222 46.2834C20.6389 46.2834 20.2889 45.9334 20.2889 45.5445C20.2889 45.1611 20.6389 44.8223 21.0222 44.8223C21.4111 44.8223 21.7556 45.1611 21.7556 45.5445C21.7556 45.9389 21.4111 46.2834 21.0222 46.2834ZM23.4889 49.0945C23.1056 49.0945 22.7556 48.7445 22.7556 48.3556C22.7556 47.9723 23.1056 47.6334 23.4889 47.6334C23.8778 47.6334 24.2222 47.9723 24.2222 48.3556C24.2222 48.7445 23.8778 49.0945 23.4889 49.0945ZM28.5222 47.7389C28.1389 47.7389 27.7889 47.3889 27.7889 47C27.7889 46.6167 28.1389 46.2778 28.5222 46.2778C28.9111 46.2778 29.2556 46.6167 29.2556 47C29.25 47.3945 28.9111 47.7389 28.5222 47.7389ZM29.5833 43.75C29.2 43.75 28.85 43.4 28.85 43.0111C28.85 42.6278 29.2 42.2889 29.5833 42.2889C29.9722 42.2889 30.3167 42.6278 30.3167 43.0111C30.3167 43.4 29.9778 43.75 29.5833 43.75ZM33.5778 49.8778C33.1945 49.8778 32.8445 49.5278 32.8445 49.1389C32.8445 48.7556 33.1945 48.4167 33.5778 48.4167C33.9667 48.4167 34.3111 48.7556 34.3111 49.1389C34.3111 49.5334 33.9667 49.8778 33.5778 49.8778ZM34.8445 46.5834C34.4611 46.5834 34.1111 46.2334 34.1111 45.8445C34.1111 45.4611 34.4611 45.1223 34.8445 45.1223C35.2333 45.1223 35.5778 45.4611 35.5778 45.8445C35.5778 46.2389 35.2333 46.5834 34.8445 46.5834ZM40.5611 46.35C40.1778 46.35 39.8278 46 39.8278 45.6111C39.8278 45.2278 40.1778 44.8889 40.5611 44.8889C40.95 44.8889 41.2945 45.2278 41.2945 45.6111C41.2889 46 40.95 46.35 40.5611 46.35ZM44.8834 49.0945C44.5 49.0945 44.15 48.7445 44.15 48.3556C44.15 47.9723 44.5 47.6334 44.8834 47.6334C45.2722 47.6334 45.6167 47.9723 45.6167 48.3556C45.6167 48.7445 45.2778 49.0945 44.8834 49.0945Z" fill="white"/>
<path id="Vector_2" d="M30.2219 23.5945V38.7889C30.2219 39.1778 29.9108 39.4834 29.5275 39.4834C29.1441 39.4834 28.833 39.1778 28.833 38.7889V23.5945C29.0608 23.6223 29.2941 23.6389 29.5275 23.6389C29.7608 23.6334 29.9886 23.6223 30.2219 23.5945Z" fill="white"/>
<path id="Vector_3" d="M30.2223 31.6333C30.2223 31.8 30.1612 31.9722 30.0334 32.1056C29.9 32.25 29.7112 32.3278 29.5223 32.3278C29.3556 32.3278 29.1834 32.2667 29.05 32.1389C28.9778 32.0667 28.9056 32.0056 28.8278 31.9445C28.3445 31.5111 27.8389 31.1 27.3223 30.7278C27.5445 30.3056 27.7056 29.8445 27.7945 29.3556C28.1445 29.5945 28.4834 29.85 28.8278 30.1278C29.2223 30.4333 29.6223 30.7667 30 31.1167C30.1445 31.2556 30.2223 31.4445 30.2223 31.6333ZM45.9445 27.7445C44.6723 28.9056 43.8556 30.2889 43.0667 31.6167C41.8056 33.7556 40.6167 35.7667 37.8556 35.95C37.5834 35.9778 37.3278 35.9945 37.0667 35.9945C35.3889 35.9945 33.9945 35.4 33.0889 34.2945C32.9 34.0556 32.7334 33.8056 32.6 33.5445C36.3334 31.0722 40.6556 29.5222 40.7112 29.5111C41.0723 29.3833 41.2612 28.9889 41.1389 28.6278C41.0056 28.2611 40.6112 28.0722 40.2445 28.1945C40.0223 28.2778 35.9167 29.7333 32.15 32.1722C32.0056 31.3056 32.0778 30.3611 32.3889 29.4C32.6834 28.4778 33.1667 27.6722 33.7889 27.05C36.0889 24.7667 40.1 24.6056 45.7112 26.5778C45.9389 26.6556 46.1167 26.8556 46.1667 27.0945C46.2112 27.3333 46.1278 27.5778 45.9445 27.7445ZM32.6 33.5445C31.7556 34.1 30.95 34.7056 30.2167 35.3556C30.1389 35.4167 30.0612 35.4833 29.9945 35.55C29.8556 35.6667 29.6889 35.7333 29.5223 35.7333C29.3334 35.7333 29.1445 35.6556 29.0056 35.5111C28.8889 35.3778 28.8223 35.2111 28.8223 35.0389C28.8223 34.85 28.9 34.6611 29.0445 34.5222C29.4112 34.1833 29.8112 33.8556 30.2167 33.5333C30.8389 33.05 31.4834 32.6 32.1445 32.1722C32.2334 32.6556 32.3778 33.1167 32.6 33.5445Z" fill="white"/>
<g id="Group">
<path id="Vector_4" d="M35.1389 18.011C35.1389 20.8721 32.9833 23.2443 30.2222 23.5943V16.011C30.2222 15.6277 29.9111 15.3166 29.5278 15.3166C29.1444 15.3166 28.8333 15.6277 28.8333 16.011V23.5888C26.0611 23.2499 23.9055 20.8721 23.9055 18.0054C23.9055 15.1388 28.4389 8.76655 28.9611 8.04989C29.2166 7.68877 29.8278 7.68877 30.0889 8.04989C30.6055 8.77211 35.1389 15.1499 35.1389 18.011ZM18.3055 25.4721C18.1944 25.8332 18.3944 26.2221 18.7666 26.3443C18.8222 26.3666 23.3666 27.7999 27.3222 30.7277C27.1833 30.9832 27.0222 31.2388 26.8333 31.4666C25.8778 32.6388 24.3944 33.2666 22.6055 33.2666C22.3278 33.2666 22.0389 33.2499 21.7555 33.2166C18.8555 33.0332 17.5889 30.8888 16.2444 28.6166C15.4 27.1888 14.5222 25.711 13.1555 24.4666C12.9833 24.2999 12.9 24.0499 12.9444 23.811C12.9944 23.5666 13.1666 23.3721 13.4 23.2888C19.3722 21.1999 23.6389 21.3666 26.0944 23.7888C26.75 24.4443 27.2555 25.2999 27.5722 26.2777C27.9111 27.3499 27.9833 28.3999 27.7944 29.3554C23.7666 26.4721 19.4 25.0832 19.1833 25.0166C18.8166 24.9054 18.4222 25.1054 18.3055 25.4721Z" fill="white"/>
</g>
</g>
</svg>
