<svg width="42" height="42" viewBox="0 0 42 42" fill="none" xmlns="http://www.w3.org/2000/svg">
<g id="Water Drop">
<path id="Vector" d="M23.2837 6.9957C23.1444 6.8511 22.9737 6.74041 22.7849 6.67215C22.596 6.60389 22.394 6.57987 22.1944 6.60195C23.7211 8.83624 24.6641 11.4172 24.9375 14.1095C24.9761 16.9363 23.8927 19.6632 21.9246 21.6928C19.9565 23.7224 17.2642 24.8892 14.4375 24.9376C12.8906 24.9353 11.3645 24.5807 9.975 23.9007C9.50305 25.0667 9.23661 26.3056 9.1875 27.5626C9.1875 31.0435 10.5703 34.3819 13.0317 36.8434C15.4931 39.3048 18.8315 40.6876 22.3125 40.6876C25.7935 40.6876 29.1319 39.3048 31.5933 36.8434C34.0547 34.3819 35.4375 31.0435 35.4375 27.5626C35.4375 20.7376 24.5306 8.38695 23.2837 6.9957Z" fill="white"/>
<path id="Vector_2" d="M22.3127 14.0831C22.3127 9.92248 16.1439 2.57248 15.4352 1.74561C15.312 1.60152 15.159 1.48584 14.9868 1.40652C14.8146 1.32721 14.6273 1.28613 14.4377 1.28613C14.2481 1.28613 14.0608 1.32721 13.8886 1.40652C13.7164 1.48584 13.5634 1.60152 13.4402 1.74561C12.7314 2.62498 6.56269 9.92248 6.56269 14.0831C6.53829 15.1408 6.72275 16.193 7.10551 17.1793C7.48826 18.1656 8.0618 19.0668 8.79327 19.8312C9.52475 20.5956 10.3998 21.2082 11.3684 21.634C12.3369 22.0598 13.3799 22.2903 14.4377 22.3125C15.4955 22.2903 16.5385 22.0598 17.507 21.634C18.4756 21.2082 19.3506 20.5956 20.0821 19.8312C20.8136 19.0668 21.3871 18.1656 21.7699 17.1793C22.1526 16.193 22.3371 15.1408 22.3127 14.0831Z" fill="white"/>
</g>
</svg>
