<svg width="57" height="57" viewBox="0 0 57 57" fill="none" xmlns="http://www.w3.org/2000/svg">
<g id="Bomb">
<path id="Vector" d="M3.19749 20.1459L8.25624 22.4348V29.8716C8.25624 31.903 9.0632 33.8511 10.4996 35.2876C11.936 36.724 13.8842 37.5309 15.9156 37.5309C17.947 37.5309 19.8952 36.724 21.3316 35.2876C22.768 33.8511 23.575 31.903 23.575 29.8716V22.4348L28.6426 20.1459C28.7989 20.0757 28.9316 19.9619 29.0248 19.8181C29.118 19.6744 29.1678 19.5068 29.1681 19.3355V11.4802C29.1681 11.2439 29.0743 11.0174 28.9073 10.8504C28.7402 10.6834 28.5137 10.5895 28.2775 10.5895H20.9655V8.80828H22.6844C22.9206 8.80828 23.1471 8.71445 23.3141 8.54742C23.4812 8.3804 23.575 8.15386 23.575 7.91766V3.5625C23.575 3.32629 23.4812 3.09976 23.3141 2.93273C23.1471 2.76571 22.9206 2.67188 22.6844 2.67188H9.14686C8.91065 2.67188 8.68412 2.76571 8.51709 2.93273C8.35007 3.09976 8.25624 3.32629 8.25624 3.5625V7.89984C8.25624 8.13605 8.35007 8.36259 8.51709 8.52961C8.68412 8.69664 8.91065 8.79047 9.14686 8.79047H10.8747V10.5717H3.56264C3.32643 10.5717 3.0999 10.6656 2.93287 10.8326C2.76585 10.9996 2.67202 11.2261 2.67202 11.4623V19.3177C2.66891 19.492 2.71704 19.6634 2.81045 19.8107C2.90386 19.9579 3.03843 20.0745 3.19749 20.1459ZM21.7937 29.8716C21.7937 31.4305 21.1744 32.9257 20.0721 34.028C18.9697 35.1304 17.4746 35.7497 15.9156 35.7497C14.3566 35.7497 12.8615 35.1304 11.7591 34.028C10.6568 32.9257 10.0375 31.4305 10.0375 29.8716V17.5631H21.7937V29.8716ZM27.3869 18.7655L23.575 20.4844V12.3708H27.3869V18.7655ZM21.7937 15.7819H10.0375V12.3708H21.7937V15.7819ZM10.0375 4.45312H21.7937V7.00922H10.0375V4.45312ZM12.6559 8.79047H19.1842V10.5717H12.6559V8.79047ZM4.45327 12.3708H8.25624V20.4844L4.45327 18.7655V12.3708ZM34.3159 25.5877H36.0348V27.3689H28.7228C28.4866 27.3689 28.2601 27.4627 28.093 27.6298C27.926 27.7968 27.8322 28.0233 27.8322 28.2595V36.1238C27.8325 36.2951 27.8823 36.4627 27.9755 36.6064C28.0687 36.7502 28.2014 36.864 28.3576 36.9342L33.4253 39.2142V46.6688C33.4253 48.7001 34.2323 50.6483 35.6687 52.0847C37.1051 53.5212 39.0533 54.3281 41.0847 54.3281C43.1161 54.3281 45.0643 53.5212 46.5007 52.0847C47.9371 50.6483 48.744 48.7001 48.744 46.6688V39.232L53.8028 36.952C53.9591 36.8818 54.0917 36.768 54.1849 36.6242C54.2781 36.4805 54.3279 36.3129 54.3283 36.1416V28.2773C54.3283 28.0411 54.2344 27.8146 54.0674 27.6476C53.9004 27.4806 53.6739 27.3867 53.4376 27.3867H46.1256V25.6055H47.8534C48.0896 25.6055 48.3162 25.5116 48.4832 25.3446C48.6502 25.1776 48.744 24.9511 48.744 24.7148V20.3597C48.744 20.1235 48.6502 19.8969 48.4832 19.7299C48.3162 19.5629 48.0896 19.4691 47.8534 19.4691H34.3159C34.0797 19.4691 33.8532 19.5629 33.6862 19.7299C33.5191 19.8969 33.4253 20.1235 33.4253 20.3597V24.697C33.4253 24.9332 33.5191 25.1598 33.6862 25.3268C33.8532 25.4938 34.0797 25.5877 34.3159 25.5877ZM29.6134 35.5627V29.168H33.4253V37.2816L29.6134 35.5627ZM46.9628 46.6688C46.9628 47.4407 46.8108 48.205 46.5154 48.9182C46.2199 49.6314 45.787 50.2794 45.2411 50.8252C44.6953 51.371 44.0473 51.804 43.3341 52.0994C42.621 52.3948 41.8566 52.5469 41.0847 52.5469C40.3127 52.5469 39.5484 52.3948 38.8352 52.0994C38.122 51.804 37.474 51.371 36.9282 50.8252C36.3824 50.2794 35.9494 49.6314 35.654 48.9182C35.3586 48.205 35.2065 47.4407 35.2065 46.6688V34.3603H46.9628V46.6688ZM52.547 35.5627L48.744 37.2816V29.168H52.547V35.5627ZM46.9628 32.5791H35.2065V29.168H46.9628V32.5791ZM44.3444 27.3867H37.8161V25.6055H44.3444V27.3867ZM35.2065 21.2503H46.9628V23.8064H35.2065V21.2503Z" fill="white"/>
</g>
</svg>
