<svg width="90" height="90" viewBox="0 0 90 90" fill="none" xmlns="http://www.w3.org/2000/svg">
<g id="Farmer">
<path id="Vector" d="M84.375 44.9834C84.375 55.4263 80.2266 65.4415 72.8423 72.8257C65.4581 80.21 55.4429 84.3584 45 84.3584C34.5571 84.3584 24.5419 80.21 17.1577 72.8257C9.77343 65.4415 5.625 55.4263 5.625 44.9834C5.625 39.8126 6.64346 34.6924 8.62224 29.9152C10.601 25.138 13.5014 20.7974 17.1577 17.1411C20.814 13.4848 25.1546 10.5844 29.9318 8.60564C34.709 6.62686 39.8292 5.6084 45 5.6084C50.1708 5.6084 55.291 6.62686 60.0682 8.60564C64.8454 10.5844 69.186 13.4848 72.8423 17.1411C76.4986 20.7974 79.399 25.138 81.3777 29.9152C83.3565 34.6924 84.375 39.8126 84.375 44.9834Z" fill="#AC9D93"/>
<path id="Vector_2" d="M35.5953 40.0773C35.5953 40.0773 12.6559 31.4201 35.1559 27.4651C35.1559 27.4651 34.5406 16.3908 41.7916 16.4347C45.483 17.9293 51.1382 15.376 52.941 17.0938C55.8273 19.8444 55.1383 27.6405 55.1383 27.6405C55.1383 27.6405 75.1535 31.8818 56.4098 39.6231L35.5953 40.0773Z" fill="#333333"/>
<path id="Vector_3" d="M50.6364 16.4731C50.4196 16.4747 50.1876 16.4838 49.9553 16.505C50.1906 16.4944 50.417 16.4838 50.6364 16.4731ZM41.9682 16.505C42.144 16.5688 42.323 16.6273 42.5065 16.6751C42.3234 16.622 42.1437 16.5688 41.9682 16.505ZM46.4671 16.8537C45.9256 16.8962 45.378 16.9387 44.8411 16.9387C45.3799 16.9376 45.9237 16.9068 46.4671 16.8537ZM39.4248 16.9068C39.2556 16.9813 39.0922 17.0642 38.936 17.1545C39.0922 17.0695 39.2556 16.9823 39.4248 16.9068ZM34.4206 27.613C34.2843 27.6342 34.1469 27.6661 34.0141 27.6874C34.1474 27.6555 34.284 27.6342 34.4206 27.613ZM34.0141 27.6874C13.4615 31.7314 35.5961 40.0854 35.5961 40.0854L56.4097 39.6294C70.094 33.9776 63.122 30.1983 58.3598 28.5662C58.9611 28.7756 59.605 29.0211 60.2549 29.3081C59.7094 29.1593 58.2981 28.9127 56.558 29.6983C54.3207 30.707 37.9692 32.3082 34.1459 29.7196C33.0028 28.9436 31.9455 28.5678 31.0203 28.4232C31.9183 28.1564 32.9103 27.9096 34.0141 27.6874Z" fill="url(#paint0_linear_53_24)"/>
<path id="Vector_4" d="M56.25 36.5454C56.804 36.5454 57.3526 36.6545 57.8645 36.8665C58.3763 37.0786 58.8414 37.3893 59.2331 37.7811C59.6249 38.1728 59.9356 38.6379 60.1476 39.1497C60.3596 39.6616 60.4688 40.2102 60.4688 40.7642C60.4687 41.8831 60.0243 42.9561 59.2331 43.7473C58.4419 44.5384 57.3689 44.9829 56.25 44.9829H53.4375V42.1704H56.25V36.5454ZM33.75 36.5454C33.196 36.5454 32.6474 36.6545 32.1355 36.8665C31.6237 37.0786 31.1586 37.3893 30.7669 37.7811C30.3751 38.1728 30.0644 38.6379 29.8524 39.1497C29.6404 39.6616 29.5312 40.2102 29.5313 40.7642C29.5313 41.8831 29.9757 42.9561 30.7669 43.7473C31.5581 44.5384 32.6311 44.9829 33.75 44.9829H36.5625V42.1704H33.75V36.5454Z" fill="#D38D5F"/>
<path id="Vector_5" d="M36.5627 55.6616C36.5627 55.6616 19.5405 58.0975 14.8922 69.7461C14.8284 69.8651 14.7676 69.9852 14.7109 70.1032C18.4022 74.5587 23.0301 78.146 28.2653 80.6098C33.5005 83.0735 39.2143 84.3533 45.0002 84.3579C50.7871 84.3541 56.502 83.0747 61.7382 80.6109C66.9744 78.1471 71.6032 74.5594 75.295 70.1032C75.2366 69.9831 75.1756 69.8651 75.1083 69.7461C70.46 58.0975 53.4377 55.6616 53.4377 55.6616H36.5627Z" fill="white"/>
<path id="Vector_6" opacity="0.596" d="M53.1406 55.6206C53.1406 55.6206 54.2354 55.78 55.9421 56.2031L53.1406 59.0046V55.6206Z" fill="black" fill-opacity="0.988"/>
<path id="Vector_7" d="M36.5625 50.6079V60.537C45 68.9745 53.4375 60.537 53.4375 60.537V50.6079" fill="#D38D5F"/>
<path id="Vector_8" opacity="0.201" d="M36.5625 53.4204H53.4375C53.4375 53.4204 45 61.8579 36.5625 53.4204Z" fill="#502D16"/>
<path id="Vector_9" d="M56.2495 30.9204C56.2495 33.7329 56.2495 42.1708 56.2495 42.1708C56.2495 49.937 51.2128 56.2329 44.9996 56.2329C38.7864 56.2329 33.7496 49.937 33.7495 42.1706C33.7495 42.1706 33.749 33.7329 33.749 30.9203C33.749 28.1078 38.2491 22.4829 44.9993 22.4829C51.7494 22.4829 56.2495 28.1078 56.2495 30.9204Z" fill="#FFB380"/>
<path id="Vector_10" d="M33.75 37.9517C33.0041 37.9517 32.2887 38.248 31.7613 38.7754C31.2338 39.3029 30.9375 40.0182 30.9375 40.7641C30.9375 41.51 31.2338 42.2254 31.7613 42.7528C32.2887 43.2803 33.0041 43.5766 33.75 43.5766V37.9517ZM56.25 37.9517C56.9959 37.9517 57.7113 38.248 58.2387 38.7754C58.7662 39.3029 59.0625 40.0182 59.0625 40.7641C59.0625 41.51 58.7662 42.2254 58.2387 42.7528C57.7113 43.2803 56.9959 43.5766 56.25 43.5766V37.9517Z" fill="#A05A2C"/>
<path id="Vector_11" d="M33.4015 56.2769C28.3677 57.5248 18.007 61.0856 14.538 69.779C14.5093 69.8321 14.4827 69.8853 14.4551 69.9384C18.1463 74.4434 22.791 78.0734 28.0543 80.5668C33.3177 83.0603 39.0686 84.3551 44.8927 84.3579C50.7732 84.3564 56.5788 83.0377 61.8829 80.4988C67.1871 77.9598 71.8553 74.265 75.5446 69.6857C72.0389 61.0601 61.7353 57.5203 56.7195 56.277L44.6455 74.9976L33.4015 56.2769Z" fill="#C8AB37"/>
<path id="Vector_12" d="M34.6235 28.1973C34.0566 29.1582 33.7501 30.0766 33.7501 30.8066C33.7501 32.1703 33.7499 33.8557 33.7501 36.2612L35.3595 36.1655C35.546 30.0745 38.9686 29.2057 38.9686 29.2057L34.6235 28.1973Z" fill="url(#paint1_linear_53_24)"/>
<path id="Vector_13" d="M55.431 28.2412C55.9979 29.2022 56.3045 30.1206 56.3045 30.8505C56.3045 32.2143 56.3046 33.8996 56.3045 36.3052L54.695 36.2095C54.5085 30.1184 51.0859 29.2497 51.0859 29.2497L55.431 28.2412Z" fill="url(#paint2_linear_53_24)"/>
<path id="Vector_14" d="M41.7916 16.4347C34.5407 16.3922 35.1559 27.4649 35.1559 27.4649C33.5837 27.7413 32.2168 28.0602 31.0195 28.4153C31.9448 28.5598 33.0021 28.9361 34.1451 29.7117C37.9684 32.2996 54.3199 30.6992 56.5573 29.6903C58.2973 28.9048 59.7087 29.1514 60.2542 29.3002C57.6544 28.1522 55.14 27.6413 55.14 27.6413C55.14 27.6413 55.8291 19.845 52.9428 17.0944C51.1399 15.3767 45.483 17.9293 41.7916 16.4347Z" fill="#552200"/>
<path id="Vector_15" d="M45.0002 25.4878L35.1564 26.1033C35.1289 26.8793 35.1537 27.3698 35.1564 27.4216L44.9123 26.6743L55.1955 27.6852L55.289 27.6746C55.254 27.667 55.1407 27.6427 55.1407 27.6427C55.1407 27.6427 55.1599 27.3567 55.179 26.9666L45.0002 25.4878Z" fill="#2B1100"/>
<path id="Vector_16" d="M45.9939 72.9106L44.6481 74.998L43.4121 72.9381V84.276C43.9041 84.3127 44.3967 84.3402 44.8898 84.3584C45.2581 84.3434 45.6262 84.3233 45.9939 84.298V72.9106Z" fill="black"/>
<path id="Vector_17" opacity="0.596" d="M36.5623 55.6094C36.5623 55.6094 35.4674 55.7688 33.7607 56.1919L36.5623 58.9934V55.6094Z" fill="black" fill-opacity="0.988"/>
<path id="Vector_18" d="M34.6504 55.98C33.9664 56.1331 33.1369 56.3382 32.1895 56.6114C32.197 56.6433 32.2032 56.6752 32.2117 56.7071C37.4445 65.1064 44.225 66.4942 44.9998 66.6278C45.7745 66.4938 52.5551 65.1064 57.7878 56.7071C57.7963 56.6752 57.8028 56.6433 57.8101 56.6114C56.8626 56.3382 56.0332 56.1331 55.3491 55.98V55.9856C55.1661 56.2854 50.7257 63.4674 45.0659 64.2582C45.0437 64.261 45.0223 64.2661 45 64.2689C44.9778 64.2658 44.9564 64.2608 44.9341 64.2582C39.2744 63.4674 34.834 56.2854 34.6509 55.9856L34.6504 55.98Z" fill="#28220B"/>
</g>
<defs>
<linearGradient id="paint0_linear_53_24" x1="48.6004" y1="31.5307" x2="48.6004" y2="39.9232" gradientUnits="userSpaceOnUse">
<stop stop-color="#333333"/>
<stop offset="1" stop-color="white"/>
</linearGradient>
<linearGradient id="paint1_linear_53_24" x1="34.6928" y1="36.7861" x2="35.4051" y2="30.355" gradientUnits="userSpaceOnUse">
<stop stop-color="#FFB380"/>
<stop offset="1"/>
</linearGradient>
<linearGradient id="paint2_linear_53_24" x1="55.3636" y1="36.8311" x2="54.6514" y2="30.4" gradientUnits="userSpaceOnUse">
<stop stop-color="#FFB380"/>
<stop offset="1"/>
</linearGradient>
</defs>
</svg>
