<svg width="62" height="62" viewBox="0 0 62 62" fill="none" xmlns="http://www.w3.org/2000/svg">
<g id="Oxygen Tank">
<path id="Vector" fill-rule="evenodd" clip-rule="evenodd" d="M21.9587 7.75008H24.542V5.16675H16.792V7.75008H19.3753V10.3334H16.5715C16.0396 8.82838 14.6042 7.75008 12.917 7.75008C10.7769 7.75008 9.04199 9.48498 9.04199 11.6251C9.04199 13.7652 10.7769 15.5001 12.917 15.5001C14.6042 15.5001 16.0396 14.4218 16.5715 12.9167H19.3753V15.6073C15.71 16.2221 12.917 19.41 12.917 23.2501V55.5418C12.917 56.2551 13.4953 56.8334 14.2087 56.8334H27.1253C27.8387 56.8334 28.417 56.2551 28.417 55.5418V23.2501C28.417 19.41 25.624 16.2221 21.9587 15.6073V12.9167H28.417V10.3334H21.9587V7.75008ZM20.667 18.0834C17.8136 18.0834 15.5003 20.3967 15.5003 23.2501V25.8334H25.8337V23.2501C25.8337 20.3967 23.5204 18.0834 20.667 18.0834ZM15.5003 54.2501V28.4167H25.8337V54.2501H15.5003ZM11.6253 11.6251C11.6253 10.9117 12.2036 10.3334 12.917 10.3334C13.6304 10.3334 14.2087 10.9117 14.2087 11.6251C14.2087 12.3384 13.6304 12.9167 12.917 12.9167C12.2036 12.9167 11.6253 12.3384 11.6253 11.6251ZM33.5837 27.1251C33.5837 24.2717 35.8969 21.9584 38.7503 21.9584C41.6037 21.9584 43.917 24.2717 43.917 27.1251V34.8751C43.917 37.7285 41.6037 40.0418 38.7503 40.0418C35.8969 40.0418 33.5837 37.7285 33.5837 34.8751V27.1251ZM38.7503 24.5417C37.3236 24.5417 36.167 25.6983 36.167 27.1251V34.8751C36.167 36.3019 37.3236 37.4584 38.7503 37.4584C40.1771 37.4584 41.3337 36.3019 41.3337 34.8751V27.1251C41.3337 25.6983 40.1771 24.5417 38.7503 24.5417ZM49.0837 33.5834H45.2087V31.0001H49.0837C51.2238 31.0001 52.9587 32.7349 52.9587 34.8751C52.9587 37.0152 51.2238 38.7501 49.0837 38.7501C48.3703 38.7501 47.792 39.3284 47.792 40.0418V41.3334H52.9587V43.9168H46.5003C45.7869 43.9168 45.2087 43.3385 45.2087 42.6251V40.0418C45.2087 37.9016 46.9435 36.1667 49.0837 36.1667C49.7971 36.1667 50.3753 35.5885 50.3753 34.8751C50.3753 34.1617 49.7971 33.5834 49.0837 33.5834Z" fill="white"/>
</g>
</svg>
