<svg width="55" height="52" viewBox="0 0 55 52" fill="none" xmlns="http://www.w3.org/2000/svg">
<g id="Rickshaw" clip-path="url(#clip0_264_38)">
<path id="Vector" fill-rule="evenodd" clip-rule="evenodd" d="M23.2191 2.14373C22.267 3.29037 21.878 4.62174 21.6601 5.85756C17.6067 5.94356 14.0159 7.74633 12.0747 10.9091C7.31046 11.7054 3.12291 14.3522 2.0031 18.1871C1.93997 18.4025 1.9695 18.6329 2.08519 18.8276C2.20088 19.0224 2.39326 19.1655 2.62001 19.2254C2.84675 19.2854 3.08929 19.2574 3.29426 19.1475C3.49924 19.0375 3.64986 18.8548 3.71299 18.6394C4.59811 15.6135 8.26599 13.1196 12.6379 12.4698C12.7802 12.4488 12.915 12.3951 13.0307 12.3136C13.1463 12.232 13.2394 12.1249 13.3018 12.0016C15.2698 9.12229 18.7768 7.12842 22.2133 7.3673C22.3291 7.37692 22.4458 7.36478 22.5566 7.33157C22.6675 7.29836 22.7704 7.24474 22.8594 7.17375C22.9484 7.10277 23.0219 7.01582 23.0756 6.91787C23.1292 6.81992 23.1621 6.71288 23.1722 6.60287C23.3106 5.36095 23.8071 4.17942 24.6072 3.18844C26.6255 1.17864 29.8642 0.79643 31.725 2.86993C32.5129 3.7745 33.0191 5.10906 33.2907 6.63472C33.3139 6.76376 33.3684 6.8859 33.4499 6.99148C33.5313 7.09707 33.6375 7.1832 33.7601 7.24308C36.6065 8.61267 38.3902 11.3837 38.3935 14.4096C38.3935 14.9096 38.8462 15.3014 39.3658 15.2504C41.1361 15.5912 41.9776 16.8302 42.3531 18.3846C42.3481 18.603 42.4327 18.8147 42.5891 18.9749C42.7455 19.135 42.9614 19.2311 43.1911 19.2427C43.4207 19.2543 43.6461 19.1805 43.8195 19.037C43.9929 18.8934 44.1006 18.6915 44.12 18.4738C43.9088 16.0021 42.3699 14.4096 40.0297 13.9382C39.9464 12.3175 39.4323 10.7434 38.5353 9.36261C37.6382 7.98186 36.3876 6.83954 34.9 6.0423C34.5849 4.47204 34.1021 2.95275 33.0895 1.79337C30.0084 -0.780196 25.5727 -0.512647 23.2191 2.14373ZM54.0742 16.6041C54.0438 16.6079 54.0136 16.6132 53.9837 16.62L47.7745 17.4577C47.5636 17.4868 47.3708 17.5873 47.2316 17.7406C47.0924 17.8939 47.0161 18.0898 47.0167 18.2922C47.0167 20.4804 47.3185 22.3086 47.171 23.5413C47.0972 24.1592 46.9363 24.6051 46.6312 24.9682C46.3261 25.3313 45.8433 25.653 44.9716 25.9173C44.8298 25.9603 44.7017 26.0365 44.5992 26.139C44.4966 26.2414 44.4229 26.3667 44.3849 26.5034L40.9785 38.6323L11.374 44.0406C11.0052 44.1075 10.7537 43.9801 10.6934 43.7348L7.07242 29.0515C7.05088 28.9387 7.00539 28.8313 6.93872 28.7358C6.87205 28.6402 6.7856 28.5586 6.68464 28.4959C6.58368 28.4331 6.47032 28.3906 6.35149 28.3708C6.23265 28.351 6.11082 28.3544 5.99342 28.3809C5.87602 28.4073 5.76552 28.4561 5.66865 28.5245C5.57178 28.5928 5.49057 28.6791 5.42997 28.7782C5.36937 28.8773 5.33065 28.9871 5.31617 29.1009C5.3017 29.2147 5.31177 29.3301 5.34577 29.4401L8.96671 44.1234C9.25839 45.3083 10.5559 45.907 11.7092 45.6936L27.9129 42.7347L42.3229 50.6401C42.4573 50.7138 42.6098 50.7527 42.765 50.7528C42.9202 50.7529 43.0726 50.7142 43.2071 50.6406C43.3416 50.5671 43.4534 50.4612 43.5312 50.3336C43.6091 50.2061 43.6502 50.0613 43.6506 49.9139V35.6606L46.021 27.22C46.8122 26.8984 47.5699 26.5512 48.0192 26.0161C48.5464 25.3541 48.8639 24.563 48.9345 23.7355C49.1021 22.3245 48.8741 20.7193 48.8104 19.0216L54.2385 18.2858C54.4637 18.2546 54.6677 18.1424 54.8084 17.9725C54.9491 17.8025 55.0158 17.5878 54.9947 17.3725C54.9736 17.1572 54.8664 16.9578 54.6951 16.8155C54.5239 16.6731 54.3016 16.5986 54.0742 16.6073V16.6041ZM1.77847 19.9803C1.30887 19.9845 0.859784 20.1638 0.528021 20.4795C0.196258 20.7953 0.00838016 21.2223 0.00488281 21.6684V23.3533C0.00488281 24.2706 0.809536 25.0383 1.78183 25.0383H44.3547C45.3203 25.0383 46.1316 24.2738 46.1316 23.3501V21.6684C46.1273 21.222 45.9386 20.795 45.6063 20.4793C45.274 20.1636 44.8246 19.9845 44.3547 19.9803H1.77847ZM1.77847 21.6684H44.3547V23.3533H1.77512L1.77847 21.6684ZM6.46558 26.1339C6.30297 26.2941 6.21351 26.5087 6.21665 26.7312C6.21979 26.9537 6.31527 27.166 6.48234 27.322L18.1599 38.2692C18.3275 38.4284 18.5555 38.5144 18.7902 38.5144H39.6575C39.8559 38.5152 40.0488 38.4529 40.2055 38.3375C40.3623 38.222 40.4739 38.0601 40.5225 37.8774L43.4427 26.9302C43.4841 26.7191 43.4392 26.5009 43.3172 26.3201C43.1951 26.1394 43.0052 26.0096 42.7859 25.9572C42.5667 25.9048 42.3347 25.9338 42.1372 26.0382C41.9397 26.1427 41.7915 26.3147 41.7228 26.5193L38.9736 36.8263H19.1456L7.72285 26.118C7.55142 25.9655 7.32468 25.8817 7.08985 25.8841C6.85501 25.8865 6.6302 25.9748 6.46222 26.1307L6.46558 26.1339ZM10.985 35.1573C10.7415 35.1478 10.4977 35.1478 10.2542 35.1573C10.0185 35.167 9.79659 35.2653 9.6372 35.4304C9.47781 35.5956 9.39401 35.8141 9.40424 36.038C9.41446 36.2619 9.51788 36.4727 9.69173 36.6241C9.86558 36.7755 10.0956 36.8551 10.3313 36.8454C11.8675 36.7785 13.3849 37.1878 14.6549 38.0117C15.9248 38.8355 16.8784 40.0292 17.372 41.4129C17.4101 41.5174 17.4695 41.6139 17.5468 41.6966C17.6241 41.7794 17.7178 41.8469 17.8225 41.8952C17.9273 41.9436 18.0411 41.9719 18.1573 41.9785C18.2736 41.985 18.3901 41.9698 18.5002 41.9336C18.6102 41.8975 18.7117 41.841 18.7989 41.7676C18.886 41.6941 18.957 41.6051 19.0079 41.5056C19.0588 41.4061 19.0886 41.298 19.0955 41.1875C19.1025 41.0771 19.0864 40.9664 19.0483 40.8618C18.47 39.2474 17.3896 37.8378 15.9498 36.8192C14.5101 35.8006 12.7789 35.2211 10.985 35.1573ZM5.64081 36.7754C5.46677 36.7901 5.30117 36.8532 5.16472 36.9569C3.73164 38.0291 2.68114 39.4947 2.15621 41.1543C1.63128 42.814 1.65743 44.5869 2.23109 46.2319C2.80856 47.8745 3.90423 49.3083 5.36928 50.3387C6.83433 51.3691 8.59774 51.9461 10.42 51.9913C12.2422 52.0366 14.0349 51.5478 15.5546 50.5915C17.0743 49.6352 18.2473 48.2576 18.9142 46.646C19.0005 46.4373 18.996 46.2047 18.9016 45.9992C18.8073 45.7937 18.631 45.6323 18.4113 45.5503C18.1917 45.4684 17.9468 45.4727 17.7305 45.5623C17.5142 45.6519 17.3442 45.8194 17.258 46.0281C16.7295 47.3216 15.7934 48.4286 14.5777 49.1977C13.362 49.9668 11.9259 50.3604 10.4658 50.3249C9.00565 50.2893 7.5927 49.8263 6.42004 48.9991C5.24737 48.1719 4.37221 47.0208 3.91416 45.7032C3.45327 44.3875 3.43102 42.9686 3.85045 41.6404C4.26988 40.3122 5.11055 39.1394 6.25771 38.2819C6.40818 38.1702 6.51677 38.0155 6.56739 37.8405C6.61801 37.6656 6.60796 37.4799 6.53873 37.3108C6.4695 37.1417 6.34478 36.9983 6.18304 36.9019C6.02131 36.8055 5.83117 36.7611 5.64081 36.7754ZM41.8804 40.1866V48.4519L30.5716 42.2537L41.867 40.193L41.8804 40.1866Z" fill="white"/>
</g>
<defs>
<clipPath id="clip0_264_38">
<rect width="55" height="52" fill="white"/>
</clipPath>
</defs>
</svg>
