<svg width="20" height="31" viewBox="0 0 20 31" fill="none" xmlns="http://www.w3.org/2000/svg">
<path id="Vector" d="M16.8319 0.541016L15.2541 3.31035C15.1584 3.47202 14.9831 3.57633 14.7919 3.57633H4.67687C4.48562 3.57633 4.31031 3.47202 4.21469 3.31035L2.71656 0.681829C1.38844 1.1825 0.4375 2.47068 0.4375 3.97791V27.1652C0.4375 29.1105 2.01531 30.696 3.95969 30.696H16.0403C17.9847 30.696 19.5625 29.1105 19.5625 27.1652V3.97791C19.5625 2.30379 18.3938 0.895657 16.8319 0.541016ZM6.47781 21.6213C6.47781 21.3454 6.70094 21.1154 6.9825 21.1154H7.98656C8.26334 21.1154 8.49125 21.3449 8.49125 21.6213C8.49125 21.8977 8.26281 22.1277 7.98656 22.1277H6.9825C6.70094 22.1272 6.47781 21.8977 6.47781 21.6213ZM6.47781 19.1023C6.47781 18.8212 6.70094 18.5964 6.9825 18.5964H7.98656C8.26334 18.5964 8.49125 18.8212 8.49125 19.1023C8.49125 19.3787 8.26281 19.6035 7.98656 19.6035H6.9825C6.70094 19.603 6.47781 19.3787 6.47781 19.1023ZM10 29.1835C8.88969 29.1835 7.98656 28.2818 7.98656 27.1657C7.98656 26.0543 8.88969 25.1526 10 25.1526C11.1103 25.1526 12.0134 26.0543 12.0134 27.1657C12.0134 28.2813 11.1103 29.1835 10 29.1835ZM13.0175 22.1272H9.49531C9.21906 22.1272 8.99063 21.8977 8.99063 21.6208C8.99063 21.3449 9.21959 21.1149 9.49531 21.1149H13.0175C13.2991 21.1149 13.5222 21.3444 13.5222 21.6208C13.5222 21.8977 13.2991 22.1272 13.0175 22.1272ZM13.0175 19.603H9.49531C9.21906 19.603 8.99063 19.3782 8.99063 19.1018C8.99063 18.8207 9.21959 18.5959 9.49531 18.5959H13.0175C13.2991 18.5959 13.5222 18.8207 13.5222 19.1018C13.5222 19.3787 13.2991 19.603 13.0175 19.603ZM14.3669 11.1125V11.1177C14.3616 13.5532 12.3805 15.535 9.94741 15.535C7.51428 15.535 5.53219 13.548 5.53219 11.1078C5.53219 8.66647 7.51375 6.68518 9.94741 6.68518C10.5844 6.68518 11.1852 6.82077 11.7271 7.06068C11.7377 7.06642 11.7483 7.07163 11.759 7.07632C12.2536 7.30058 12.7046 7.6135 13.0871 7.99422C13.0871 7.99996 13.0929 7.99996 13.0983 8.00517L13.1036 8.0156C13.4754 8.40154 13.7836 8.84484 13.9961 9.34029C14.0072 9.35594 14.012 9.37211 14.0173 9.38723C14.241 9.9145 14.3679 10.4929 14.3679 11.1031C14.3669 11.102 14.3669 11.1072 14.3669 11.1125Z" fill="white"/>
</svg>
