<svg width="49" height="49" viewBox="0 0 49 49" fill="none" xmlns="http://www.w3.org/2000/svg">
<g id="Classification Learning">
<path id="Vector" d="M6.02747 45.8641C8.82047 45.8641 11.0745 43.6101 11.0745 40.8171C11.0745 38.2201 9.11447 36.1131 6.61547 35.8191V29.4491C6.61547 28.7631 7.20347 28.1751 7.88947 28.1751H24.0105V35.8191C21.4625 36.0641 19.4535 38.2201 19.4535 40.8171C19.4535 43.6101 21.7075 45.8641 24.5005 45.8641C27.2935 45.8641 29.5475 43.6101 29.5475 40.8171C29.5475 38.2201 27.5385 36.0641 24.9905 35.8191V28.1751H41.1115C41.7975 28.1751 42.3855 28.7631 42.3855 29.4491L42.4835 35.7701C39.9355 36.0151 37.9265 38.1711 37.9265 40.7681C37.9265 43.5611 40.1805 45.8151 42.9735 45.8151C45.7665 45.8641 48.0205 43.6101 48.0205 40.8171C48.0205 38.2201 46.0115 36.0641 43.4635 35.8191L43.3655 29.4491C43.3655 28.2241 42.3365 27.1951 41.1115 27.1951H24.9905V19.5021H40.4255C42.0915 19.5021 43.4635 18.1301 43.4635 16.4641V6.22306C43.4635 4.55706 42.0915 3.18506 40.4255 3.18506H8.57547C6.90947 3.18506 5.53747 4.55706 5.53747 6.22306V16.4151C5.53747 18.0811 6.90947 19.4531 8.57547 19.4531H24.0105V27.1951H7.88947C6.66447 27.1951 5.63547 28.2241 5.63547 29.4491V35.7701C3.03847 36.0151 0.980469 38.1711 0.980469 40.8171C0.980469 43.6101 3.23447 45.8641 6.02747 45.8641ZM10.3395 7.20306H38.6615C38.9555 7.20306 39.1515 7.44806 39.1515 7.69306C39.1515 7.93806 38.9555 8.18306 38.6615 8.18306H10.3395C10.0455 8.18306 9.84947 7.93806 9.84947 7.69306C9.84947 7.44806 10.0455 7.20306 10.3395 7.20306ZM10.3395 10.8291H38.6615C38.9555 10.8291 39.1515 11.0741 39.1515 11.3191C39.1515 11.5641 38.9555 11.8091 38.6615 11.8091H10.3395C10.0455 11.8091 9.84947 11.5641 9.84947 11.3191C9.84947 11.0741 10.0455 10.8291 10.3395 10.8291ZM9.84947 14.9451C9.84947 14.7001 10.0455 14.4551 10.3395 14.4551H38.6615C38.9555 14.4551 39.1515 14.7001 39.1515 14.9451C39.1515 15.2391 38.9555 15.4351 38.6615 15.4351H10.3395C10.0455 15.4351 9.84947 15.1901 9.84947 14.9451Z" fill="white"/>
</g>
</svg>
