<svg width="106" height="62" viewBox="0 0 106 62" fill="none" xmlns="http://www.w3.org/2000/svg">
<path d="M4 32.9748C4 32.9748 15.9557 26.0475 24.9225 36.9332C33.8893 47.8189 36.8782 61.6734 45.845 61.1786C54.8117 60.6838 62.8818 36.6858 62.8818 36.6858C62.8818 36.6858 50.0294 58.7046 40.4649 45.8397C31.8628 34.2662 33.2915 25.5527 23.7269 24.5631C14.1623 23.5735 4 32.9748 4 32.9748Z" fill="#8D7B68" stroke="#A4907C" stroke-miterlimit="10"/>
<path d="M102.137 32.9748C102.137 32.9748 90.181 26.0475 81.2142 36.9332C72.2475 47.8189 69.2585 61.6734 60.2918 61.1786C51.325 60.6838 43.2549 36.6858 43.2549 36.6858C43.2549 36.6858 56.1073 58.7046 65.6718 45.8397C74.2739 34.2662 72.8452 25.5527 82.4098 24.5631C91.9744 23.5735 102.137 32.9748 102.137 32.9748Z" fill="#8D7B68" stroke="#A4907C" stroke-miterlimit="10"/>
<path d="M56.4389 12.562C56.3453 15.2713 56.2404 14.7852 54.5261 16.9155C53.3919 18.4147 53.1852 20.1066 54.1464 21.6434C54.3188 21.9208 54.5254 22.1765 54.7616 22.4047C55.0087 22.5802 55.3096 22.6679 55.6146 22.6533C55.9196 22.6388 56.2104 22.5229 56.4389 22.3248C57.721 20.7444 58.3442 18.7481 58.1835 16.7369L56.4389 12.562Z" fill="#8D7B68"/>
<path d="M47.9566 24.4901C47.9907 27.2685 50.3793 26.7736 52.485 29.3281C53.8245 30.9514 53.8595 33.6597 52.7243 35.3237C52.5209 35.6228 52.2789 35.8995 52.0035 36.148C51.7104 36.3375 51.3542 36.4321 50.9933 36.4164C50.6324 36.4007 50.2881 36.2755 50.0169 36.0615C48.5044 34.3475 47.7686 32.1851 47.9566 30.0061L47.9566 24.4901Z" fill="#8D7B68"/>
<path d="M48.306 7.97437C47.9879 10.6485 50.7428 9.60338 52.6394 12.1254C53.2517 12.8578 53.5647 13.7299 53.5334 14.6166C53.5021 15.5033 53.1282 16.3592 52.4653 17.0615C52.214 17.3459 51.9218 17.6045 51.595 17.8319C51.0609 18.2048 49.8305 18.1165 49.5124 17.6945C48.9877 17.0363 48.5895 16.3246 48.3235 15.5838C47.4607 13.1811 48.1742 10.5238 48.306 7.97437Z" fill="#8D7B68"/>
<path d="M57.8305 18.0673C57.7182 20.8921 56.3722 23.6172 53.9881 25.8466C52.3999 27.4103 52.1106 29.175 53.4564 30.7779C53.6963 31.0666 53.9857 31.3318 54.3178 31.5671C54.663 31.7508 55.0839 31.8431 55.511 31.8288C55.938 31.8146 56.3456 31.6946 56.6663 31.4887C58.4589 29.8373 59.3311 27.7545 59.109 25.6554L57.8305 18.0673Z" fill="#8D7B68"/>
<path d="M55.3153 0.634153C55.5131 2.49343 54.3954 5.17355 53.1802 6.74412C52.7787 7.23968 52.5766 7.82804 52.6029 8.42482C52.6291 9.0216 52.8823 9.59616 53.3262 10.0661C53.5032 10.2545 53.7075 10.4241 53.9345 10.571C54.1437 10.688 54.3951 10.7419 54.6465 10.7235C54.8978 10.7051 55.1339 10.6156 55.3153 10.47C56.2239 9.29604 56.5447 7.87414 56.2095 6.50684L55.3153 0.634153Z" fill="#8D7B68"/>
<path d="M47.9565 16.2322C47.9911 18.9627 50.2062 18.6376 52.3462 21.1527C53.7075 22.7509 53.9556 24.5546 52.8019 26.1628C52.5981 26.4591 52.3519 26.7318 52.0693 26.9745C51.7721 27.1617 51.4105 27.2557 51.0437 27.2411C50.677 27.2266 50.3267 27.1043 50.0504 26.8943C48.5148 25.206 47.7673 23.0775 47.9566 20.9323L47.9565 16.2322Z" fill="#8D7B68"/>
<path d="M50.0012 0.634153C50.0185 2.26822 50.9361 2.8248 52.0061 4.32994C52.6868 5.28639 52.8108 6.36578 52.234 7.32823C52.1321 7.50554 52.009 7.66876 51.8677 7.81396C51.7191 7.926 51.5383 7.98226 51.3549 7.97355C51.1715 7.96483 50.9964 7.89166 50.8582 7.76599C50.0904 6.75566 49.7167 5.48185 49.8113 4.19802L50.0012 0.634153Z" fill="#8D7B68"/>
</svg>
