<svg width="18" height="23" viewBox="0 0 18 23" fill="none" xmlns="http://www.w3.org/2000/svg">
<g id="Person Profile" clip-path="url(#clip0_107_238)">
<g id="Vector">
<mask id="path-1-inside-1_107_238" fill="white">
<path d="M9.00024 10.6915C6.14036 10.6915 3.81348 8.31329 3.81348 5.39028C3.81348 2.46726 6.14036 0.0892334 9.00024 0.0892334C11.8603 0.0892334 14.187 2.46726 14.187 5.39051C14.187 8.31375 11.8603 10.6915 9.00024 10.6915ZM9.00024 1.01373C6.6392 1.01373 4.718 2.97712 4.718 5.39051C4.718 7.8039 6.63898 9.76729 9.00024 9.76729C11.3615 9.76729 13.2825 7.8039 13.2825 5.39051C13.2825 2.97712 11.3615 1.01373 9.00024 1.01373Z"/>
</mask>
<path d="M9.00024 10.6915C6.14036 10.6915 3.81348 8.31329 3.81348 5.39028C3.81348 2.46726 6.14036 0.0892334 9.00024 0.0892334C11.8603 0.0892334 14.187 2.46726 14.187 5.39051C14.187 8.31375 11.8603 10.6915 9.00024 10.6915ZM9.00024 1.01373C6.6392 1.01373 4.718 2.97712 4.718 5.39051C4.718 7.8039 6.63898 9.76729 9.00024 9.76729C11.3615 9.76729 13.2825 7.8039 13.2825 5.39051C13.2825 2.97712 11.3615 1.01373 9.00024 1.01373Z" fill="white" fill-opacity="0.66"/>
<path d="M13.2825 5.39051H1.28247H13.2825ZM9.00024 -1.30845C13.0135 -1.30845 15.8135 1.93427 15.8135 5.39028H-8.18652C-8.18652 14.6923 -0.732751 22.6915 9.00024 22.6915V-1.30845ZM15.8135 5.39028C15.8135 8.84697 13.0128 12.0892 9.00024 12.0892V-11.9108C-0.732081 -11.9108 -8.18652 -3.91245 -8.18652 5.39028H15.8135ZM9.00024 12.0892C4.98722 12.0892 2.18699 8.84628 2.18699 5.39051H26.187C26.187 -3.91176 18.7334 -11.9108 9.00024 -11.9108V12.0892ZM2.18699 5.39051C2.18699 1.93404 4.9879 -1.30845 9.00024 -1.30845V22.6915C18.7328 22.6915 26.187 14.6935 26.187 5.39051H2.18699ZM9.00024 -10.9863C-0.233502 -10.9863 -7.282 -3.40232 -7.282 5.39051H16.718C16.718 9.35656 13.5119 13.0137 9.00024 13.0137V-10.9863ZM-7.282 5.39051C-7.282 14.1829 -0.234133 21.7673 9.00024 21.7673V-2.23271C13.5121 -2.23271 16.718 1.42487 16.718 5.39051H-7.282ZM9.00024 21.7673C18.2346 21.7673 25.2825 14.1829 25.2825 5.39051H1.28247C1.28247 1.42487 4.48838 -2.23271 9.00024 -2.23271V21.7673ZM25.2825 5.39051C25.2825 -3.40191 18.2346 -10.9863 9.00024 -10.9863V13.0137C4.48838 13.0137 1.28247 9.35614 1.28247 5.39051H25.2825Z" fill="white" fill-opacity="0.66" mask="url(#path-1-inside-1_107_238)"/>
</g>
<g id="Vector_2">
<mask id="path-3-inside-2_107_238" fill="white">
<path d="M8.99784 22.9108C5.73387 22.9108 2.65826 21.6221 0.33771 19.282C0.250198 19.1937 0.20158 19.0728 0.203162 18.9471C0.220122 17.5772 0.530147 16.2654 1.12464 15.048C2.62502 11.9766 5.64183 10.0685 8.99784 10.0685C13.7893 10.0685 17.7364 14.0514 17.7966 18.9471C17.7982 19.0728 17.7495 19.1937 17.6618 19.282C15.3415 21.6221 12.2645 22.9108 8.99784 22.9108ZM1.11243 18.762C3.24575 20.843 6.03824 21.9864 8.99806 21.9864C11.9606 21.9864 14.7544 20.843 16.8875 18.762C16.7322 14.4603 13.2328 10.993 8.99806 10.993C5.98713 10.993 3.28035 12.7049 1.93419 15.461C1.42924 16.4944 1.15336 17.604 1.11243 18.762Z"/>
</mask>
<path d="M8.99784 22.9108C5.73387 22.9108 2.65826 21.6221 0.33771 19.282C0.250198 19.1937 0.20158 19.0728 0.203162 18.9471C0.220122 17.5772 0.530147 16.2654 1.12464 15.048C2.62502 11.9766 5.64183 10.0685 8.99784 10.0685C13.7893 10.0685 17.7364 14.0514 17.7966 18.9471C17.7982 19.0728 17.7495 19.1937 17.6618 19.282C15.3415 21.6221 12.2645 22.9108 8.99784 22.9108ZM1.11243 18.762C3.24575 20.843 6.03824 21.9864 8.99806 21.9864C11.9606 21.9864 14.7544 20.843 16.8875 18.762C16.7322 14.4603 13.2328 10.993 8.99806 10.993C5.98713 10.993 3.28035 12.7049 1.93419 15.461C1.42924 16.4944 1.15336 17.604 1.11243 18.762Z" fill="white" fill-opacity="0.66"/>
<path d="M0.33771 19.282L-8.18497 27.7297L-8.18313 27.7316L0.33771 19.282ZM0.203162 18.9471L12.2022 19.0981L12.2022 19.0956L0.203162 18.9471ZM1.12464 15.048L-9.65762 9.7809L-9.6582 9.78209L1.12464 15.048ZM17.7966 18.9471L5.79748 19.0945L5.79753 19.0981L17.7966 18.9471ZM17.6618 19.282L9.15003 10.8233L9.14056 10.8328L17.6618 19.282ZM1.11243 18.762L-10.8801 18.338L-11.0676 23.6443L-7.26693 27.3518L1.11243 18.762ZM16.8875 18.762L25.2674 27.3514L29.0715 23.6401L28.8797 18.3289L16.8875 18.762ZM1.93419 15.461L12.7158 20.7295L12.7168 20.7275L1.93419 15.461ZM8.99784 10.9108C8.97284 10.9108 8.96022 10.9085 8.95703 10.9079C8.9537 10.9072 8.95265 10.9068 8.95164 10.9063C8.9506 10.9059 8.94366 10.903 8.93042 10.894C8.91725 10.8851 8.89248 10.8666 8.85855 10.8324L-8.18313 27.7316C-3.63382 32.3192 2.49916 34.9108 8.99784 34.9108V10.9108ZM8.86039 10.8343C11.0625 13.056 12.2407 16.0436 12.2022 19.0981L-11.7959 18.796C-11.8375 22.102 -10.5622 25.3314 -8.18497 27.7297L8.86039 10.8343ZM12.2022 19.0956C12.1975 19.4798 12.1009 19.9179 11.9075 20.314L-9.6582 9.78209C-11.0406 12.6128 -11.7572 15.6747 -11.7959 18.7985L12.2022 19.0956ZM11.9069 20.3152C11.4426 21.2656 10.3353 22.0685 8.99784 22.0685V-1.93152C0.948354 -1.93152 -6.1926 2.68771 -9.65762 9.7809L11.9069 20.3152ZM8.99784 22.0685C6.98094 22.0685 5.81509 20.5272 5.79749 19.0945L29.7957 18.7997C29.6578 7.57561 20.5977 -1.93152 8.99784 -1.93152V22.0685ZM5.79753 19.0981C5.75906 16.0421 6.93861 13.0486 9.15004 10.8233L26.1736 27.7407C28.5605 25.3388 29.8373 22.1035 29.7956 18.796L5.79753 19.0981ZM9.14056 10.8328C9.10716 10.8665 9.08284 10.8847 9.06993 10.8934C9.05696 10.9022 9.05007 10.9051 9.0488 10.9056C9.04758 10.9061 9.04602 10.9067 9.04188 10.9076C9.03788 10.9084 9.02417 10.9108 8.99784 10.9108V34.9108C15.4963 34.9108 21.6317 32.3213 26.1831 27.7311L9.14056 10.8328ZM-7.26693 27.3518C-2.91437 31.5977 2.87655 33.9864 8.99806 33.9864V9.98635C9.07272 9.98635 9.17799 10.0026 9.28841 10.0478C9.39822 10.0927 9.4658 10.1467 9.4918 10.1721L-7.26693 27.3518ZM8.99806 33.9864C15.1191 33.9864 20.9125 31.5999 25.2674 27.3514L8.50771 10.1725C8.53494 10.1459 8.60322 10.0917 8.71264 10.047C8.82261 10.002 8.92625 9.98635 8.99806 9.98635V33.9864ZM28.8797 18.3289C28.5004 7.82518 19.9416 -1.00703 8.99806 -1.00703V22.993C6.52407 22.993 4.96398 21.0954 4.89535 19.195L28.8797 18.3289ZM8.99806 -1.00703C1.29362 -1.00703 -5.53764 3.41607 -8.84841 10.1946L12.7168 20.7275C12.0983 21.9937 10.6806 22.993 8.99806 22.993V-1.00703ZM-8.84743 10.1926C-10.0985 12.7529 -10.7803 15.5149 -10.8801 18.338L13.1049 19.1859C13.087 19.6931 12.957 20.2359 12.7158 20.7295L-8.84743 10.1926Z" fill="white" fill-opacity="0.66" mask="url(#path-3-inside-2_107_238)"/>
</g>
</g>
<defs>
<clipPath id="clip0_107_238">
<rect width="18" height="23" fill="white"/>
</clipPath>
</defs>
</svg>
